<svg xmlns="http://www.w3.org/2000/svg" fill="none" viewBox="0 0 1140 500"><mask id="b" width="1139" height="496" x="0" y="2" maskUnits="userSpaceOnUse" style="mask-type:alpha"><ellipse cx="569.718" cy="250" fill="url(#a)" rx="568.769" ry="247.813" transform="rotate(-.22 569.718 250)"/></mask><g mask="url(#b)"><ellipse cx="569.717" cy="260" fill="url(#c)" rx="568.769" ry="247.813" transform="rotate(-.22 569.717 260)"/><circle cx="790.522" cy="445.979" r="487.874" fill="url(#d)" transform="rotate(-15 790.522 445.979)"/><circle cx="315.482" cy="363.614" r="420.889" fill="url(#e)" transform="rotate(-15 315.482 363.614)"/><path stroke="#CDF8F8" stroke-width=".49" d="M865.09 816.29c0 155.356-33.131 295.99-86.686 397.78-53.56 101.8-127.51 164.68-209.129 164.68-81.618 0-155.568-62.88-209.128-164.68-53.555-101.79-86.686-242.424-86.686-397.78 0-155.356 33.131-295.993 86.686-397.782 53.56-101.799 127.51-164.682 209.128-164.682 81.619 0 155.569 62.883 209.129 164.682 53.555 101.789 86.686 242.426 86.686 397.782Z"/><path stroke="#CDF8F8" stroke-width=".49" d="M778.665 607.643c109.853 109.854 185.871 232.726 219.978 342.57 34.107 109.857 26.287 206.617-31.428 264.327-57.713 57.71-154.469 65.54-264.325 31.43-109.844-34.11-232.717-110.13-342.57-219.98-109.854-109.855-185.871-232.728-219.978-342.572-34.111-109.856-26.285-206.612 31.428-264.325 57.713-57.712 154.469-65.538 264.325-31.428 109.844 34.107 232.716 110.125 342.57 219.978Z"/><path stroke="#CDF8F8" stroke-width=".49" d="M778.799 1025.07c-109.853 109.86-232.726 185.88-342.57 219.98-109.856 34.11-206.611 26.29-264.324-31.43-57.713-57.71-65.539-154.46-31.428-264.32 34.106-109.844 110.124-232.717 219.977-342.57 109.854-109.854 232.726-185.871 342.57-219.978 109.857-34.111 206.612-26.285 264.325 31.428 57.711 57.713 65.541 154.469 31.428 264.325-34.106 109.844-110.124 232.716-219.978 342.565Z"/><path stroke="#CDF8F8" stroke-width=".49" d="M682.967 543.809C826.497 603.262 943.75 687.69 1017.3 776.121c73.55 88.44 103.35 180.826 72.11 256.229-31.23 75.41-117.627 119.66-232.174 130.19-114.535 10.53-257.145-12.68-400.676-72.14-143.53-59.45-260.783-143.878-334.329-232.308-73.554-88.44-103.35-180.826-72.117-256.231 31.234-75.406 117.63-119.663 232.178-130.189 114.534-10.525 257.144 12.685 400.675 72.137Z"/><path stroke="#CDF8F8" stroke-width=".49" d="M842.833 929.417C783.381 1072.95 698.952 1190.2 610.522 1263.75c-88.44 73.55-180.826 103.35-256.231 72.11-75.406-31.23-119.663-117.63-130.189-232.17-10.525-114.539 12.685-257.149 72.137-400.68 59.453-143.53 143.881-260.783 232.312-334.329 88.44-73.554 180.826-103.351 256.231-72.117 75.406 31.234 119.663 117.63 130.189 232.177 10.525 114.535-12.685 257.145-72.138 400.676Z"/><path stroke="#CDF8F8" stroke-width=".49" d="M456.835 543.602c143.531-59.452 286.141-82.662 400.676-72.137 114.547 10.526 200.939 54.783 232.179 130.189 31.23 75.405 1.44 167.79-72.12 256.231-73.545 88.43-190.798 172.855-334.328 232.315-143.531 59.45-286.141 82.66-400.676 72.13-114.547-10.52-200.943-54.78-232.177-130.19-31.234-75.4-1.437-167.786 72.117-256.226 73.546-88.431 190.799-172.859 334.329-232.312Z"/><path stroke="#CDF8F8" stroke-width=".49" d="M842.546 703.221c59.452 143.531 82.662 286.141 72.137 400.679-10.526 114.54-54.783 200.94-130.189 232.17-75.405 31.24-167.791 1.44-256.231-72.11-88.43-73.55-172.859-190.8-232.311-334.332-59.453-143.531-82.662-286.141-72.138-400.676 10.526-114.547 54.783-200.943 130.189-232.177 75.405-31.234 167.791-1.437 256.231 72.117 88.431 73.546 172.859 190.799 232.312 334.329Z"/><path stroke="#CDF8F8" stroke-width=".49" d="M864.81 803.416c6.777 155.208-20.189 297.154-69.252 401.184-49.069 104.04-120.206 170.09-201.747 173.65-81.54 3.56-158.163-56.04-216.113-155.41-57.943-99.35-97.177-238.409-103.954-393.618-6.777-155.208 20.189-297.156 69.252-401.184C392.065 323.999 463.202 257.95 544.743 254.39c81.54-3.56 158.163 56.037 216.113 155.404 57.943 99.356 97.177 238.413 103.954 393.622Z"/><path stroke="#CDF8F8" stroke-width=".49" d="M582.896 1111.27c-155.208 6.78-297.156-20.19-401.184-69.25C77.673 992.949 11.624 921.812 8.064 840.272c-3.56-81.541 56.037-158.164 155.404-216.114 99.356-57.943 238.413-97.177 393.622-103.954 155.208-6.776 297.156 20.189 401.184 69.252 104.036 49.069 170.086 120.206 173.646 201.747 3.56 81.54-56.04 158.163-155.402 216.117-99.356 57.94-238.413 97.17-393.622 103.95Z"/><path stroke="#CDF8F8" stroke-width=".49" d="M769.361 598.735c114.541 104.957 195.846 224.397 234.709 332.648 38.87 108.267 35.27 205.267-19.866 265.447-55.141 60.17-151.463 72.21-262.702 42.93-111.227-29.29-237.299-99.87-351.84-204.83-114.54-104.958-195.845-224.397-234.711-332.649-38.87-108.264-35.272-205.269 19.869-265.444 55.14-60.176 151.462-72.214 262.702-42.928 111.227 29.283 237.299 99.869 351.839 204.826Z"/><path stroke="#CDF8F8" stroke-width=".49" d="M787.71 1015.76c-104.958 114.55-224.397 195.85-332.649 234.72-108.264 38.87-205.269 35.27-265.444-19.87-60.175-55.14-72.214-151.47-42.928-262.705 29.283-111.227 99.869-237.299 204.826-351.839C456.472 501.525 575.912 420.22 684.164 381.354c108.263-38.87 205.268-35.272 265.444 19.869 60.172 55.141 72.212 151.463 42.927 262.702-29.283 111.227-99.868 237.299-204.825 351.835Z"/><path stroke="#CDF8F8" stroke-width=".49" d="M670.969 539.139c145.988 53.135 266.811 132.369 344.141 217.507 77.35 85.148 111.14 176.146 83.23 252.844-27.92 76.69-112.3 124.68-226.279 140.19-113.967 15.51-257.453-1.46-403.441-54.59-145.987-53.14-266.81-132.37-344.144-217.509-77.342-85.147-111.14-176.145-83.225-252.841C69.167 548.043 153.55 500.06 267.53 484.548c113.966-15.511 257.453 1.456 403.44 54.591Z"/><path stroke="#CDF8F8" stroke-width=".49" d="M847.506 917.404c-53.135 145.986-132.369 266.816-217.507 344.146-85.148 77.34-176.146 111.14-252.842 83.22-76.696-27.91-124.679-112.29-140.192-226.27-15.511-113.97 1.457-257.457 54.592-403.445 53.135-145.987 132.368-266.81 217.507-344.144 85.147-77.342 176.145-111.14 252.841-83.225 76.696 27.916 124.68 112.299 140.192 226.278 15.511 113.966-1.456 257.453-54.591 403.44Z"/><path stroke="#CDF8F8" stroke-width=".49" d="M445.047 548.793c140.801-65.656 282.263-95.064 397.148-89.545 114.897 5.519 203.145 45.966 237.635 119.937 34.49 73.971 8.75 167.568-60.87 259.133-69.621 91.554-183.079 181.022-323.879 246.672-140.801 65.66-282.263 95.07-397.148 89.55-114.897-5.52-203.141-45.97-237.635-119.94-34.493-73.971-8.755-167.568 60.872-259.133 69.619-91.554 183.077-181.017 323.877-246.674Z"/><path stroke="#CDF8F8" stroke-width=".49" d="M837.353 691.436c65.657 140.801 95.065 282.263 89.546 397.144-5.519 114.9-45.966 203.15-119.937 237.64-73.971 34.49-167.568 8.75-259.133-60.87-91.554-69.62-181.017-183.08-246.674-323.88-65.656-140.801-95.064-282.263-89.545-397.148 5.519-114.897 45.965-203.141 119.937-237.635 73.971-34.493 167.568-8.755 259.133 60.872 91.554 69.619 181.017 183.077 246.673 323.877Z"/><path stroke="#CDF8F8" stroke-width=".49" d="M863.963 790.564c13.54 154.765-7.208 297.756-51.687 403.826-44.484 106.08-112.672 175.17-193.98 182.28-81.307 7.11-160.457-49.09-222.686-145.83-62.222-96.73-107.484-233.947-121.025-388.712-13.54-154.765 7.208-297.754 51.687-403.823 44.484-106.081 112.673-175.17 193.98-182.283 81.308-7.114 160.458 49.085 222.686 145.829 62.222 96.734 107.485 233.948 121.025 388.713Z"/><path stroke="#CDF8F8" stroke-width=".49" d="M595.749 1110.42c-154.766 13.54-297.755-7.21-403.823-51.69C85.845 1014.25 16.756 946.063 9.643 864.755c-7.114-81.308 49.085-160.457 145.829-222.686 96.734-62.222 233.948-107.485 388.713-121.025 154.765-13.54 297.754 7.208 403.823 51.687 106.082 44.484 175.172 112.672 182.282 193.98 7.11 81.308-49.08 160.457-145.829 222.686-96.733 62.223-233.947 107.483-388.712 121.023Z"/><path stroke="#CDF8F8" stroke-width=".49" d="M759.683 590.241c119.009 99.861 205.447 215.641 248.997 322.094 43.56 106.465 44.19 203.535-8.27 266.055-52.464 62.53-148.169 78.76-260.58 54.35-112.399-24.4-241.429-89.42-360.439-189.28-119.01-99.866-205.448-215.645-248.998-322.099-43.555-106.465-44.192-203.535 8.271-266.058 52.463-62.523 148.169-78.752 260.58-54.346 112.398 24.404 241.429 89.423 360.439 189.284Z"/><path stroke="#CDF8F8" stroke-width=".49" d="M796.196 1006.07c-99.861 119.01-215.64 205.45-322.094 249-106.465 43.56-203.534 44.19-266.058-8.27-62.523-52.46-78.752-148.17-54.346-260.579 24.404-112.399 89.423-241.429 189.284-360.439 99.861-119.01 215.641-205.447 322.094-248.998 106.466-43.555 203.535-44.192 266.058 8.271 62.524 52.464 78.756 148.169 54.346 260.58-24.403 112.399-89.422 241.429-189.284 360.435Z"/><path stroke="#CDF8F8" stroke-width=".49" d="M658.781 534.997c148.166 46.716 272.331 120.604 353.309 202.288 80.98 81.694 118.71 171.13 94.17 248.971-24.54 77.844-106.753 129.464-219.947 149.924-113.182 20.47-257.272 9.78-405.438-36.94-148.166-46.71-272.331-120.601-353.304-202.285C46.588 815.261 8.853 725.824 33.396 647.984 57.94 570.143 140.15 518.525 253.343 498.055c113.182-20.467 257.272-9.775 405.438 36.942Z"/><path stroke="#CDF8F8" stroke-width=".49" d="M851.65 905.198C804.934 1053.36 731.046 1177.53 649.362 1258.5c-81.694 80.98-171.13 118.72-248.971 94.18-77.841-24.55-129.459-106.76-149.929-219.95-20.467-113.18-9.775-257.272 36.942-405.438 46.716-148.166 120.604-272.331 202.288-353.304 81.694-80.982 171.13-118.718 248.971-94.174 77.841 24.543 129.459 106.752 149.929 219.947 20.467 113.181 9.775 257.271-36.942 405.437Z"/><path stroke="#CDF8F8" stroke-width=".49" d="M433.497 554.493C571.3 482.758 711.345 447.207 826.361 447.71c115.029.502 204.949 37.061 242.639 109.457 37.69 72.396 16.06 167.027-49.51 261.542-65.558 94.504-175.006 188.831-312.809 260.561-137.803 71.74-277.847 107.29-392.863 106.79-115.029-.5-204.954-37.06-242.64-109.46-37.688-72.4-16.056-167.026 49.51-261.54 65.559-94.504 175.007-188.831 312.809-260.567Z"/><path stroke="#CDF8F8" stroke-width=".49" d="M831.652 679.888c71.736 137.803 107.287 277.847 106.784 392.862-.502 115.03-37.061 204.95-109.457 242.64-72.397 37.69-167.028 16.06-261.542-49.51-94.504-65.56-188.831-175.01-260.566-312.808-71.736-137.803-107.287-277.848-106.784-392.864.502-115.029 37.061-204.953 109.457-242.64 72.397-37.687 167.028-16.056 261.542 49.51 94.504 65.559 188.831 175.007 260.566 312.81Z"/><path stroke="#CDF8F8" stroke-width=".49" d="M862.559 777.761c20.278 154.027 5.787 297.789-34.023 405.689-39.815 107.92-104.925 179.92-185.845 190.57-80.92 10.66-162.445-42.03-228.835-135.97-66.382-93.93-117.587-229.04-137.865-383.066-20.278-154.027-5.787-297.785 34.023-405.693 39.815-107.92 104.925-179.917 185.845-190.571 80.92-10.653 162.445 42.039 228.835 135.977 66.382 93.928 117.587 229.037 137.865 383.064Z"/><path stroke="#CDF8F8" stroke-width=".49" d="M608.55 1109.02c-154.027 20.27-297.785 5.78-405.693-34.03-107.92-39.81-179.917-104.922-190.57-185.842-10.654-80.921 42.038-162.446 135.976-228.836C242.191 593.93 377.3 542.725 531.327 522.447c154.027-20.278 297.785-5.786 405.693 34.024 107.92 39.814 179.92 104.924 190.57 185.844 10.65 80.92-42.04 162.445-135.976 228.835-93.928 66.38-229.037 117.59-383.064 137.87Z"/><path stroke="#CDF8F8" stroke-width=".49" d="M749.639 582.179c123.252 94.575 214.658 206.474 262.811 310.927 48.16 104.464 53.03 201.414 3.34 266.164-49.685 64.75-144.591 85.14-257.96 65.66-113.356-19.48-245.1-78.8-368.352-173.38-123.253-94.575-214.658-206.474-262.81-310.926C78.51 636.16 73.639 539.21 123.325 474.458c49.687-64.752 144.593-85.14 257.962-65.66 113.356 19.477 245.099 78.806 368.352 173.381Z"/><path stroke="#CDF8F8" stroke-width=".49" d="M804.261 996.021c-94.575 123.249-206.474 214.659-310.927 262.809-104.464 48.16-201.413 53.03-266.165 3.34-64.753-49.68-85.141-144.59-65.661-257.96 19.478-113.354 78.807-245.097 173.382-368.35 94.575-123.252 206.474-214.658 310.926-262.81 104.464-48.158 201.414-53.028 266.166-3.342 64.752 49.686 85.14 144.592 65.66 257.961-19.477 113.356-78.806 245.1-173.381 368.352Z"/><path stroke="#CDF8F8" stroke-width=".49" d="M646.424 531.384c150.063 40.209 277.332 108.611 361.796 186.686 84.46 78.083 126.06 165.788 104.94 244.626-21.12 78.834-101 133.994-213.198 159.384-112.181 25.38-256.6 20.98-406.663-19.23S215.967 994.243 131.508 916.169C47.038 838.086 5.438 750.38 26.563 671.543c21.124-78.838 101.004-133.993 213.198-159.38 112.181-25.385 256.6-20.988 406.663 19.221Z"/><path stroke="#CDF8F8" stroke-width=".49" d="M855.259 892.825C815.05 1042.89 746.648 1170.16 668.574 1254.62c-78.083 84.47-165.789 126.07-244.626 104.94-78.838-21.12-133.993-101-159.38-213.2-25.385-112.18-20.988-256.597 19.221-406.66C323.998 589.637 392.4 462.368 470.475 377.908c78.083-84.468 165.788-126.069 244.626-104.944 78.837 21.124 133.992 101.004 159.379 213.198 25.385 112.181 20.988 256.6-19.221 406.663Z"/><path stroke="#CDF8F8" stroke-width=".49" d="M422.209 560.694c134.542-77.678 272.903-119.303 387.831-123.818 114.942-4.516 206.38 28.086 247.18 98.769 40.81 70.684 23.33 166.168-38.05 263.453-61.375 97.273-166.604 196.284-301.147 273.962-134.542 77.68-272.903 119.3-387.831 123.82-114.942 4.51-206.375-28.09-247.184-98.77-40.81-70.68-23.326-166.168 38.055-263.453 61.374-97.273 166.603-196.284 301.146-273.963Z"/><path stroke="#CDF8F8" stroke-width=".49" d="M825.453 668.6c77.678 134.543 119.304 272.903 123.819 387.83 4.515 114.94-28.086 206.38-98.77 247.19-70.683 40.8-166.167 23.32-263.452-38.06-97.274-61.37-196.284-166.6-273.963-301.145-77.678-134.543-119.303-272.903-123.818-387.832-4.516-114.941 28.086-206.375 98.769-247.184 70.684-40.809 166.168-23.326 263.452 38.055 97.274 61.375 196.285 166.604 273.963 301.146Z"/><path stroke="#CDF8F8" stroke-width=".49" d="M860.601 765.033c26.977 152.996 18.77 297.247-16.295 406.787-35.069 109.56-96.977 184.33-177.355 198.5-80.378 14.17-164.125-34.91-234.549-125.87-70.416-90.94-127.465-223.69-154.442-376.682-26.978-152.996-18.771-297.249 16.294-406.791 35.07-109.554 96.977-184.323 177.355-198.496 80.379-14.173 164.125 34.913 234.549 125.866 70.416 90.943 127.465 223.689 154.443 376.686Z"/><path stroke="#CDF8F8" stroke-width=".49" d="M621.28 1107.05c-152.996 26.98-297.249 18.77-406.791-16.3-109.554-35.06-184.323-96.972-198.495-177.35C1.82 833.022 50.907 749.275 141.86 678.851c90.942-70.416 223.689-127.465 376.685-154.442 152.996-26.978 297.249-18.771 406.791 16.294 109.554 35.07 184.324 96.977 198.494 177.355 14.17 80.379-34.91 164.125-125.864 234.549-90.943 70.413-223.689 127.463-376.686 154.443Z"/><path stroke="#CDF8F8" stroke-width=".49" d="M739.257 574.562c127.26 89.109 223.46 196.915 276.123 299.167 52.67 102.264 61.76 198.911 14.95 265.771-46.816 66.85-140.743 91.36-254.853 76.85-114.098-14.52-248.304-68.04-375.565-157.15-127.26-89.112-223.46-196.918-276.122-299.17-52.67-102.264-61.764-198.909-14.949-265.767 46.814-66.857 140.741-91.366 254.851-76.85 114.098 14.515 248.304 68.041 375.565 157.149Z"/><path stroke="#CDF8F8" stroke-width=".49" d="M811.872 985.628c-89.109 127.262-196.914 223.462-299.167 276.122-102.264 52.67-198.908 61.76-265.766 14.95-66.858-46.82-91.366-140.74-76.85-254.85 14.514-114.1 68.04-248.306 157.149-375.567 89.109-127.26 196.914-223.459 299.167-276.122 102.264-52.669 198.908-61.764 265.766-14.949 66.858 46.814 91.366 140.741 76.85 254.851-14.514 114.098-68.04 248.304-157.149 375.565Z"/><path stroke="#CDF8F8" stroke-width=".49" d="M633.92 528.319c151.674 33.626 281.806 96.411 369.59 170.727 87.79 74.324 133.18 160.132 115.52 239.815-17.67 79.679-95.07 138.269-206.047 168.529-110.967 30.25-255.441 32.16-407.115-1.47-151.673-33.62-281.805-96.41-369.59-170.722C48.484 860.874 3.098 775.066 20.763 695.382c17.665-79.683 95.063-138.27 206.043-168.528 110.967-30.253 255.44-32.16 407.114 1.465Z"/><path stroke="#CDF8F8" stroke-width=".49" d="M858.324 880.305c-33.625 151.675-96.41 281.805-170.726 369.595-74.324 87.79-160.132 133.18-239.816 115.51-79.683-17.66-138.271-95.06-168.528-206.04-30.253-110.97-32.16-255.443 1.465-407.117s96.411-281.806 170.727-369.59c74.324-87.795 160.132-133.181 239.815-115.516 79.684 17.666 138.271 95.064 168.528 206.043 30.254 110.967 32.16 255.441-1.465 407.115Z"/><path stroke="#CDF8F8" stroke-width=".49" d="M411.198 567.38c131.027-83.473 267.44-131.094 382.062-140.618 114.635-9.525 207.4 19.058 251.26 87.894 43.85 68.836 30.55 164.992-26.53 264.861-57.073 99.858-157.883 203.365-288.909 286.843-131.027 83.47-267.44 131.09-382.062 140.61-114.635 9.53-207.404-19.05-251.257-87.89-43.854-68.84-30.552-164.993 26.527-264.862 57.073-99.858 157.883-203.365 288.909-286.838Z"/><path stroke="#CDF8F8" stroke-width=".49" d="M818.764 657.596c83.473 131.026 131.094 267.439 140.618 382.064 9.525 114.63-19.057 207.4-87.893 251.25-68.837 43.86-164.993 30.56-264.862-26.52-99.858-57.08-203.365-157.89-286.838-288.912-83.472-131.027-131.094-267.44-140.617-382.062-9.525-114.635 19.057-207.403 87.893-251.257 68.836-43.853 164.992-30.552 264.862 26.527 99.858 57.073 203.364 157.883 286.837 288.91Z"/><path stroke="#CDF8F8" stroke-width=".49" d="M858.085 752.403c33.626 151.674 31.719 296.147 1.465 407.117-30.257 110.98-88.844 188.38-168.528 206.04-79.683 17.67-165.491-27.72-239.815-115.51-74.316-87.79-137.102-217.92-170.727-369.595-33.625-151.674-31.718-296.148-1.465-407.115 30.257-110.979 88.845-188.377 168.528-206.043 79.684-17.665 165.492 27.721 239.816 115.516 74.316 87.784 137.101 217.916 170.726 369.59Z"/><path stroke="#CDF8F8" stroke-width=".49" d="M633.917 1104.53c-151.674 33.63-296.148 31.72-407.115 1.47-110.979-30.26-188.377-88.85-206.043-168.531C3.094 857.786 48.48 771.978 136.274 697.654c87.785-74.316 217.917-137.102 369.591-170.727s296.147-31.718 407.114-1.465c110.981 30.257 188.381 88.845 206.041 168.528 17.67 79.684-27.72 165.492-115.51 239.816-87.788 74.314-217.919 137.104-369.593 170.724Z"/><path stroke="#CDF8F8" stroke-width=".49" d="M728.55 567.406c131.026 83.472 231.837 186.979 288.91 286.837 57.08 99.87 70.38 196.027 26.53 264.857-43.86 68.84-136.625 97.42-251.26 87.9-114.623-9.53-251.036-57.15-382.062-140.62-131.026-83.472-231.836-186.979-288.909-286.837-57.08-99.87-70.38-196.026-26.527-264.862 43.853-68.836 136.621-97.418 251.257-87.893 114.622 9.523 251.035 57.145 382.061 140.618Z"/><path stroke="#CDF8F8" stroke-width=".49" d="M819.032 974.911C735.56 1105.94 632.053 1206.75 532.195 1263.82c-99.87 57.08-196.026 70.38-264.862 26.53-68.836-43.86-97.418-136.62-87.893-251.26 9.523-114.621 57.145-251.035 140.618-382.061C403.53 526.003 507.037 425.193 606.895 368.12c99.87-57.079 196.026-70.381 264.862-26.527 68.836 43.853 97.418 136.621 87.893 251.257-9.523 114.622-57.145 251.035-140.618 382.061Z"/><path stroke="#CDF8F8" stroke-width=".49" d="M621.301 525.801c152.996 26.978 285.743 84.027 376.685 154.443 90.954 70.424 140.044 154.17 125.864 234.549-14.17 80.378-88.94 142.287-198.493 177.357-109.542 35.06-253.795 43.27-406.792 16.29-152.996-26.98-285.742-84.02-376.685-154.44C50.927 883.576 1.841 799.829 16.014 719.451c14.173-80.378 88.942-142.286 198.496-177.355 109.541-35.065 253.795-43.272 406.791-16.295Z"/><path stroke="#CDF8F8" stroke-width=".49" d="M860.84 867.664c-26.978 152.996-84.027 285.746-154.443 376.686-70.424 90.95-154.17 140.04-234.549 125.87-80.378-14.18-142.285-88.95-177.354-198.5-35.066-109.54-43.273-253.795-16.295-406.791 26.977-152.996 84.026-285.743 154.443-376.685 70.423-90.953 154.17-140.039 234.548-125.866 80.378 14.173 142.286 88.941 177.355 198.495 35.065 109.542 43.272 253.795 16.295 406.791Z"/><path stroke="#CDF8F8" stroke-width=".49" d="M400.49 574.539c127.26-89.109 261.466-142.635 375.564-157.15 114.111-14.516 208.037 9.993 254.856 76.85 46.81 66.858 37.72 163.503-14.95 265.767-52.666 102.253-148.865 210.058-276.126 299.164-127.26 89.11-261.466 142.64-375.564 157.15-114.111 14.52-208.037-9.99-254.852-76.85-46.814-66.86-37.72-163.501 14.949-265.765C177.03 771.453 273.229 663.647 400.49 574.539Z"/><path stroke="#CDF8F8" stroke-width=".49" d="M811.608 646.891c89.109 127.26 142.635 261.466 157.15 375.569 14.516 114.11-9.993 208.03-76.851 254.85-66.857 46.81-163.502 37.72-265.766-14.95-102.253-52.66-210.058-148.86-299.167-276.125-89.109-127.26-142.635-261.466-157.149-375.564-14.516-114.111 9.992-208.037 76.85-254.852 66.858-46.814 163.502-37.72 265.767 14.949C614.694 423.431 722.5 519.63 811.608 646.891Z"/><path stroke="#CDF8F8" stroke-width=".49" d="M855.021 739.893c40.21 150.062 44.606 294.477 19.222 406.667-25.388 112.19-80.543 192.07-159.38 213.19-78.837 21.13-166.543-20.47-244.626-104.94-78.074-84.46-146.476-211.73-186.686-361.793-40.209-150.062-44.606-294.482-19.221-406.663 25.387-112.193 80.543-192.073 159.38-213.198 78.837-21.124 166.543 20.476 244.626 104.945C746.41 462.56 814.812 589.83 855.021 739.893Z"/><path stroke="#CDF8F8" stroke-width=".49" d="M646.425 1101.47c-150.062 40.21-294.482 44.6-406.663 19.22-112.194-25.39-192.073-80.54-213.198-159.382C5.44 882.471 47.04 794.765 131.51 716.682c84.459-78.074 211.729-146.476 361.791-186.685 150.063-40.21 294.483-44.607 406.664-19.222 112.196 25.387 192.076 80.543 213.196 159.38 21.13 78.837-20.47 166.543-104.94 244.626-84.463 78.074-211.732 146.479-361.795 186.689Z"/><path stroke="#CDF8F8" stroke-width=".49" d="M717.542 560.72c134.542 77.679 239.772 176.69 301.148 273.963 61.38 97.285 78.86 192.767 38.05 263.457-40.81 70.68-132.239 103.28-247.181 98.77-114.929-4.52-253.289-46.15-387.832-123.82-134.542-77.682-239.771-176.693-301.146-273.966-61.38-97.285-78.864-192.769-38.055-263.453 40.809-70.683 132.243-103.285 247.184-98.769 114.929 4.515 253.289 46.14 387.832 123.818Z"/><path stroke="#CDF8F8" stroke-width=".49" d="M825.713 963.895C748.035 1098.44 649.024 1203.67 551.75 1265.04c-97.285 61.38-192.769 78.87-263.452 38.06-70.684-40.81-103.285-132.25-98.77-247.19 4.515-114.926 46.141-253.287 123.819-387.829 77.678-134.543 176.689-239.772 273.963-301.146 97.284-61.381 192.768-78.864 263.452-38.055 70.683 40.809 103.285 132.242 98.769 247.184-4.515 114.928-46.14 253.289-123.818 387.831Z"/><path stroke="#CDF8F8" stroke-width=".49" d="M608.575 523.836c154.027 20.278 289.136 71.482 383.064 137.865 93.941 66.389 146.631 147.915 135.981 228.835-10.66 80.92-82.65 146.034-190.575 185.844-107.908 39.81-251.666 54.3-405.693 34.02-154.027-20.27-289.136-71.48-383.064-137.862C54.35 906.149 1.658 824.623 12.311 743.703c10.654-80.92 82.651-146.03 190.571-185.844 107.908-39.81 251.666-54.301 405.693-34.023Z"/><path stroke="#CDF8F8" stroke-width=".49" d="M862.799 854.923c-20.278 154.027-71.483 289.137-137.865 383.067-66.39 93.94-147.915 146.63-228.835 135.97-80.92-10.65-146.03-82.65-185.845-190.57-39.81-107.9-54.301-251.662-34.023-405.69 20.278-154.027 71.483-289.136 137.865-383.063 66.39-93.938 147.915-146.631 228.835-135.977 80.92 10.653 146.03 82.65 185.845 190.57 39.81 107.908 54.301 251.666 34.023 405.693Z"/><path stroke="#CDF8F8" stroke-width=".49" d="M390.103 582.158c123.252-94.575 254.996-153.904 368.352-173.382 113.368-19.48 208.275.908 257.965 65.661 49.68 64.752 44.81 161.701-3.35 266.165-48.149 104.453-139.554 216.352-262.806 310.928-123.253 94.57-254.997 153.9-368.353 173.38-113.368 19.48-208.275-.91-257.961-65.66-49.686-64.75-44.816-161.702 3.342-266.166 48.153-104.452 139.558-216.351 262.811-310.926Z"/><path stroke="#CDF8F8" stroke-width=".49" d="M803.985 636.508C898.56 759.76 957.889 891.504 977.367 1004.86c19.48 113.37-.908 208.28-65.661 257.96-64.752 49.69-161.701 44.82-266.165-3.34-104.453-48.15-216.352-139.56-310.927-262.811-94.575-123.252-153.904-254.996-173.381-368.352-19.48-113.369.908-208.275 65.66-257.961 64.752-49.686 161.702-44.816 266.166 3.342 104.452 48.152 216.351 139.558 310.926 262.81Z"/><path stroke="#CDF8F8" stroke-width=".49" d="M851.416 727.527c46.717 148.166 57.409 292.253 36.942 405.443-20.47 113.19-72.088 195.4-149.929 219.94-77.841 24.55-167.278-13.19-248.971-94.17-81.684-80.98-155.572-205.14-202.289-353.306-46.716-148.166-57.409-292.257-36.941-405.438 20.469-113.194 72.088-195.404 149.928-219.947 77.841-24.543 167.278 13.192 248.971 94.174 81.684 80.974 155.573 205.138 202.289 353.304Z"/><path stroke="#CDF8F8" stroke-width=".49" d="M658.788 1097.86c-148.166 46.71-292.256 57.41-405.438 36.94-113.194-20.47-195.403-72.09-219.947-149.929C8.86 907.03 46.595 817.593 127.578 735.9c80.973-81.684 205.138-155.572 353.304-202.289 148.166-46.716 292.256-57.409 405.438-36.941 113.194 20.469 195.4 72.088 219.95 149.928 24.54 77.841-13.2 167.278-94.18 248.971-80.971 81.684-205.136 155.571-353.302 202.291Z"/><path stroke="#CDF8F8" stroke-width=".49" d="M706.248 554.525c137.802 71.735 247.25 166.062 312.812 260.566 65.56 94.514 87.19 189.149 49.51 261.539-37.69 72.4-127.614 108.96-242.643 109.46-115.016.5-255.06-35.05-392.863-106.78-137.803-71.74-247.251-166.066-312.81-260.57-65.566-94.515-87.197-189.146-49.51-261.542 37.687-72.396 127.611-108.955 242.64-109.457 115.016-.503 255.061 35.048 392.864 106.784Z"/><path stroke="#CDF8F8" stroke-width=".49" d="M831.904 952.597C760.168 1090.4 665.842 1199.85 571.338 1265.41c-94.515 65.56-189.146 87.19-261.542 49.51-72.396-37.69-108.955-127.61-109.457-242.64-.503-115.02 35.048-255.064 106.784-392.867 71.735-137.803 166.062-247.251 260.566-312.81 94.514-65.566 189.145-87.197 261.541-49.51 72.397 37.687 108.955 127.611 109.458 242.64.502 115.016-35.049 255.061-106.784 392.864Z"/><path stroke="#CDF8F8" stroke-width=".49" d="M595.779 522.427c154.765 13.54 291.979 58.802 388.713 121.024 96.748 62.229 152.938 141.379 145.828 222.686-7.11 81.308-76.2 149.493-182.282 193.983-106.068 44.48-249.057 65.22-403.823 51.68-154.765-13.54-291.979-58.8-388.712-121.02C58.758 928.551 2.56 849.401 9.673 768.093c7.114-81.307 76.203-149.496 182.283-193.98 106.069-44.479 249.058-65.227 403.823-51.686Z"/><path stroke="#CDF8F8" stroke-width=".49" d="M864.203 842.111C850.662 996.876 805.4 1134.09 743.178 1230.82c-62.229 96.75-141.379 152.95-222.686 145.83-81.308-7.11-149.496-76.2-193.98-182.28-44.479-106.07-65.227-249.058-51.687-403.823 13.54-154.765 58.803-291.979 121.025-388.713 62.228-96.744 141.378-152.943 222.686-145.829 81.307 7.113 149.496 76.202 193.98 182.283 44.479 106.068 65.227 249.057 51.687 403.823Z"/><path stroke="#CDF8F8" stroke-width=".49" d="M380.061 590.223c119.01-99.861 248.04-164.88 360.439-189.284 112.411-24.406 208.116-8.177 260.58 54.346 52.46 62.524 51.83 159.593 8.27 266.058-43.55 106.454-129.987 222.233-248.997 322.097-119.01 99.86-248.04 164.88-360.439 189.28-112.411 24.41-208.116 8.18-260.58-54.34-52.463-62.53-51.826-159.6-8.271-266.063 43.551-106.453 129.988-222.233 248.998-322.094Z"/><path stroke="#CDF8F8" stroke-width=".49" d="M795.918 626.47c99.861 119.01 164.88 248.04 189.284 360.439 24.408 112.411 8.177 208.121-54.346 260.581-62.523 52.46-159.593 51.82-266.058 8.27-106.454-43.55-222.233-129.99-322.094-249-99.861-119.008-164.881-248.038-189.284-360.437-24.406-112.411-8.177-208.117 54.346-260.58 62.523-52.463 159.593-51.826 266.058-8.271C580.277 421.023 696.057 507.46 795.918 626.47Z"/><path stroke="#CDF8F8" stroke-width=".49" d="M847.274 715.333c53.135 145.988 70.102 289.477 54.591 403.437-15.513 113.98-63.496 198.37-140.192 226.28-76.696 27.92-167.694-5.88-252.842-83.22-85.138-77.34-164.372-198.16-217.507-344.148-53.135-145.987-70.102-289.473-54.591-403.44 15.512-113.979 63.496-198.363 140.192-226.278 76.696-27.915 167.694 5.883 252.841 83.225 85.139 77.334 164.373 198.157 217.508 344.144Z"/><path stroke="#CDF8F8" stroke-width=".49" d="M670.988 1093.71c-145.987 53.14-289.474 70.1-403.44 54.59-113.98-15.51-198.363-63.49-226.278-140.19-27.915-76.696 5.883-167.694 83.225-252.842 77.333-85.138 198.157-164.372 344.144-217.507 145.987-53.135 289.474-70.102 403.441-54.591 113.979 15.512 198.36 63.496 226.28 140.192 27.91 76.696-5.89 167.694-83.23 252.842-77.331 85.138-198.155 164.376-344.142 217.506Z"/><path stroke="#CDF8F8" stroke-width=".49" d="M694.698 548.826C835.499 614.483 948.957 703.945 1018.58 795.5c69.62 91.564 95.36 185.162 60.87 259.13-34.5 73.97-122.74 114.42-237.638 119.94-114.885 5.52-256.347-23.89-397.147-89.55-140.801-65.65-254.259-155.115-323.878-246.669-69.626-91.565-95.365-185.162-60.871-259.134C94.409 505.246 182.653 464.8 297.55 459.28c114.884-5.519 256.346 23.89 397.147 89.546Z"/><path stroke="#CDF8F8" stroke-width=".49" d="M837.6 941.038C771.944 1081.84 682.481 1195.3 590.927 1264.92c-91.565 69.62-185.162 95.36-259.134 60.87-73.971-34.5-114.417-122.74-119.937-237.64-5.519-114.883 23.89-256.345 89.546-397.145 65.657-140.801 155.119-254.259 246.674-323.878 91.564-69.627 185.161-95.365 259.133-60.872 73.971 34.494 114.417 122.738 119.937 237.635 5.519 114.885-23.889 256.347-89.546 397.148Z"/><path stroke="#CDF8F8" stroke-width=".49" d="M582.939 521.578c155.209 6.776 294.266 46.011 393.622 103.954 99.369 57.95 158.959 134.572 155.399 216.113-3.56 81.541-69.6 152.678-173.643 201.745-104.028 49.06-245.976 76.03-401.184 69.25-155.209-6.77-294.266-46.01-393.622-103.95C64.144 950.74 4.547 874.117 8.107 792.576c3.56-81.54 69.609-152.677 173.648-201.746 104.028-49.063 245.976-76.029 401.184-69.252Z"/><path stroke="#CDF8F8" stroke-width=".49" d="M865.052 829.249c-6.777 155.208-46.011 294.261-103.954 393.621-57.95 99.37-134.573 158.96-216.113 155.4-81.541-3.56-152.678-69.6-201.747-173.64-49.063-104.03-76.029-245.979-69.252-401.188 6.776-155.208 46.011-294.266 103.954-393.621 57.95-99.367 134.573-158.965 216.113-155.404 81.541 3.56 152.678 69.608 201.747 173.648 49.063 104.027 76.028 245.975 69.252 401.184Z"/><path stroke="#CDF8F8" stroke-width=".49" d="M370.375 598.72c114.54-104.957 240.612-175.542 351.839-204.825 111.24-29.287 207.562-17.248 262.702 42.927 55.144 60.176 58.734 157.181 19.864 265.445-38.861 108.251-120.166 227.691-234.706 332.653-114.541 104.95-240.613 175.54-351.84 204.82-111.239 29.29-207.562 17.25-262.702-42.93-55.141-60.17-58.739-157.18-19.869-265.441 38.866-108.252 120.171-227.691 234.712-332.649Z"/><path stroke="#CDF8F8" stroke-width=".49" d="M787.418 616.791c104.957 114.54 175.543 240.612 204.826 351.839 29.286 111.24 17.246 207.56-42.928 262.7-60.175 55.14-157.18 58.74-265.444 19.87-108.252-38.86-227.691-120.17-332.649-234.71-104.957-114.541-175.542-240.613-204.825-351.84-29.287-111.239-17.248-207.562 42.927-262.702 60.176-55.141 157.181-58.739 265.444-19.869 108.252 38.866 227.692 120.171 332.649 234.712Z"/></g><path stroke="url(#f)" stroke-width="1.5" d="M662 197.5v64"/><path stroke="url(#g)" stroke-width="1.5" d="M570 187.5v66"/><path stroke="url(#h)" stroke-width="1.5" d="M478 197.5v64"/><path stroke="url(#i)" stroke-width="1.5" d="M754 222v63"/><path stroke="url(#j)" stroke-width="1.5" d="M386 222v63"/><path stroke="url(#k)" stroke-width="1.5" d="M846 252.5v73"/><path stroke="url(#l)" stroke-width="1.5" d="M294 252.5v73"/><path stroke="url(#m)" stroke-width="1.5" d="M202 275v115"/><path stroke="url(#n)" stroke-width="1.5" d="M938 275v115"/><rect width="44" height="44" x="180" y="269" fill="#0B0B0B" rx="22"/><path fill="url(#o)" d="M209.835 286.276a.707.707 0 0 1-.498.209h-17.632c-.623 0-.939-.76-.503-1.212l2.892-2.996a.71.71 0 0 1 .503-.215h17.698c.627 0 .941.768.497 1.218l-2.957 2.996Zm0 13.383a.713.713 0 0 1-.498.203h-17.632c-.623 0-.939-.741-.503-1.181l2.892-2.921a.696.696 0 0 1 .503-.209h17.698c.627 0 .941.748.497 1.186l-2.957 2.922Zm0-10.649a.704.704 0 0 0-.498-.203h-17.632c-.623 0-.939.741-.503 1.181l2.892 2.921a.711.711 0 0 0 .503.209h17.698c.627 0 .941-.749.497-1.186l-2.957-2.922Z"/><path fill="#191919" fill-rule="evenodd" d="M272 251c0-12.15 9.85-22 22-22s22 9.85 22 22-9.85 22-22 22-22-9.85-22-22" clip-rule="evenodd"/><path fill="#fff" fill-rule="evenodd" d="M306.007 251c0 6.627-5.383 12-12.024 12-6.301 0-11.47-4.836-11.983-10.991h15.894v-2.018H282c.513-6.155 5.682-10.991 11.983-10.991 6.641 0 12.024 5.373 12.024 12Z" clip-rule="evenodd"/><path fill="#2C374B" d="M386 243c12.265 0 22-9.929 22-22 0-12.265-9.929-22-22-22-12.265 0-22 9.929-22 22s9.929 22 22 22Z"/><path fill="#2D374B" d="m389.379 219.725 2.168-3.687 5.842 9.123.003 1.75-.019-12.047a.906.906 0 0 0-.419-.722l-10.518-6.066a.925.925 0 0 0-.898.058l-.036.023-10.21 5.932-.04.018a.903.903 0 0 0-.527.77l.016 9.817 5.441-8.455c.686-1.122 2.178-1.483 3.564-1.463l1.627.043-9.583 15.407 1.129.652 9.698-16.043 4.286-.016-9.672 16.448 4.031 2.324.481.278a.924.924 0 0 0 .649.013l10.667-6.197-2.04 1.185-5.64-9.145Zm.827 11.941-4.071-6.406 2.485-4.228 5.347 8.449-3.761 2.185Z"/><path fill="#28A0F0" d="m386.135 225.26 4.071 6.406 3.761-2.185-5.347-8.449-2.485 4.228ZM397.392 226.911l-.002-1.75-5.843-9.123-2.167 3.687 5.64 9.145 2.039-1.185a.909.909 0 0 0 .334-.66l-.001-.114Z"/><path fill="#fff" d="m372.91 228.562 2.88 1.663 9.583-15.406-1.627-.043c-1.385-.02-2.878.341-3.563 1.462l-5.442 8.456-1.831 2.82v1.048ZM390.904 214.819l-4.286.015-9.698 16.044 3.39 1.956.921-1.567 9.673-16.448Z"/><path fill="#96BEDC" d="M399.199 214.797a2.74 2.74 0 0 0-1.282-2.201l-10.656-6.143a2.764 2.764 0 0 0-2.445 0c-.089.045-10.363 6.018-10.363 6.018a2.72 2.72 0 0 0-1.543 2.32v12.723l1.831-2.82-.016-9.817a.9.9 0 0 1 .377-.682c.048-.035 10.497-6.098 10.531-6.115a.923.923 0 0 1 .803-.004l10.519 6.066a.908.908 0 0 1 .418.722v12.161a.885.885 0 0 1-.314.66l-2.039 1.185-1.053.611-3.76 2.185-3.814 2.216a.927.927 0 0 1-.65-.013l-4.512-2.602-.922 1.567 4.055 2.341.352.199c.152.086.255.143.292.16.288.141.703.222 1.076.222.343 0 .677-.063.993-.187l11.078-6.431a2.72 2.72 0 0 0 1.044-2.046v-12.295Z"/><g clip-path="url(#p)"><circle cx="478" cy="201" r="22" fill="url(#q)"/><path fill="#fff" d="M471.482 196.418c.463-.28 1.059-.28 1.588 0l3.705 2.308 2.515 1.469 3.639 2.309c.463.28 1.058.28 1.588 0l2.845-1.819c.463-.28.794-.839.794-1.469v-3.498a1.75 1.75 0 0 0-.794-1.469l-2.845-1.749c-.464-.28-1.059-.28-1.588 0l-2.845 1.819c-.464.28-.794.839-.794 1.469v2.309l-2.515-1.539v-2.379c0-.56.265-1.119.794-1.469l5.294-3.288c.463-.28 1.058-.28 1.587 0l5.426 3.358c.529.28.794.839.794 1.399v6.576a1.75 1.75 0 0 1-.794 1.469l-5.359 3.288c-.464.28-1.059.28-1.588 0l-3.639-2.238-2.515-1.54-3.639-2.238c-.463-.28-1.058-.28-1.588 0l-2.845 1.749c-.463.28-.794.839-.794 1.469v3.498c0 .559.265 1.119.794 1.469l2.779 1.749c.463.28 1.059.28 1.588 0l2.845-1.749c.463-.28.794-.84.794-1.469v-2.239l2.514 1.539v2.309a1.75 1.75 0 0 1-.793 1.469l-5.36 3.288c-.463.28-1.058.28-1.588 0l-5.359-3.288c-.463-.28-.794-.84-.794-1.469v-6.646c0-.56.265-1.12.794-1.469l5.359-3.288Z"/></g><g clip-path="url(#r)"><rect width="44" height="44" x="548" y="164" fill="#fff" rx="22"/><path fill="#1D1D25" d="M570.311 192.16v6.217l7.878-10.706-7.878 4.489Z" opacity=".8"/><path fill="#1D1D25" d="M570.306 198.377v-6.218l-7.874-4.488 7.874 10.706Z" opacity=".5"/><path fill="#1D1D25" d="M570.311 173.626v9.149l7.873 3.456-7.873-12.605Z" opacity=".8"/><path fill="#1D1D25" d="m570.306 173.626-7.874 12.605 7.874-3.456v-9.149Z" opacity=".5"/><path fill="#1D1D25" d="m570.311 190.722 7.873-4.49-7.873-3.454v7.944Z"/><path fill="#1D1D25" d="m562.432 186.232 7.874 4.49v-7.943l-7.874 3.453Z" opacity=".8"/></g><path fill="#1E1E1E" d="M662 223c12.265 0 22-9.929 22-22 0-12.265-9.929-22-22-22-12.265 0-22 9.929-22 22s9.929 22 22 22Z"/><path fill="#F3BA2F" d="m656.629 198.793 5.371-5.371 5.374 5.374 3.125-3.125-8.499-8.5-8.496 8.497 3.125 3.125ZM654.422 201l-3.125-3.125-3.125 3.125 3.125 3.125 3.125-3.125ZM656.63 203.207l5.371 5.371 5.374-5.374 3.127 3.124-.002.001-8.499 8.499-8.497-8.496-.004-.004 3.13-3.121ZM672.704 204.126l3.125-3.125-3.125-3.125-3.125 3.125 3.125 3.125Z"/><path fill="#F3BA2F" d="M665.17 200.998h.001L662 197.827l-2.344 2.344-.269.269-.555.555-.005.005.005.004 3.168 3.169 3.171-3.171.002-.002-.003-.002Z"/><g clip-path="url(#s)"><path fill="#FF0420" d="M754 243c12.15 0 22-9.85 22-22s-9.85-22-22-22-22 9.85-22 22 9.85 22 22 22Z"/><path fill="#fff" d="M747.587 226.847c-1.31 0-2.383-.308-3.22-.924-.825-.628-1.238-1.519-1.238-2.675 0-.242.027-.54.082-.892.144-.792.347-1.745.611-2.856.749-3.028 2.681-4.541 5.796-4.541.848 0 1.607.143 2.279.429.671.275 1.2.694 1.585 1.255.385.55.578 1.211.578 1.981 0 .232-.028.523-.083.876a37.524 37.524 0 0 1-.594 2.856c-.385 1.508-1.051 2.637-1.998 3.385-.947.738-2.213 1.106-3.798 1.106Zm.231-2.377c.617 0 1.14-.182 1.569-.545.44-.363.754-.919.941-1.668.253-1.035.446-1.937.578-2.708.044-.231.066-.468.066-.71 0-1.002-.523-1.503-1.568-1.503-.617 0-1.145.182-1.586.545-.429.364-.737.92-.924 1.668-.198.738-.397 1.64-.595 2.708a3.53 3.53 0 0 0-.066.694c0 1.012.529 1.519 1.585 1.519ZM754.818 226.682a.35.35 0 0 1-.281-.115.394.394 0 0 1-.049-.297l2.279-10.733a.471.471 0 0 1 .181-.298.504.504 0 0 1 .314-.115h4.392c1.222 0 2.202.253 2.939.759.749.507 1.123 1.239 1.123 2.196 0 .276-.033.562-.099.859-.275 1.266-.831 2.202-1.668 2.807-.825.606-1.959.908-3.401.908h-2.229l-.76 3.617a.471.471 0 0 1-.181.297.504.504 0 0 1-.314.115h-2.246Zm5.846-6.307c.462 0 .864-.127 1.205-.38.352-.253.583-.617.693-1.09.033-.187.05-.352.05-.495 0-.32-.094-.562-.281-.727-.187-.176-.506-.264-.957-.264h-1.982l-.627 2.956h1.899Z"/></g><circle cx="846" cy="251" r="22" fill="#11142B"/><path fill="#4E529A" fill-rule="evenodd" d="m862.501 251.188-9.361-9.351v6.849l-9.295 6.856 9.295.007v4.991l9.361-9.352Z" clip-rule="evenodd"/><path fill="#8C8DFC" fill-rule="evenodd" d="m829.5 251.185 9.361 9.351v-6.776l9.227-6.862-9.227-.006v-5.059l-9.361 9.352Z" clip-rule="evenodd"/><rect width="43.5" height="43.5" x="916.25" y="269.25" fill="#141415" rx="21.75"/><path fill="#fff" d="M936.729 276.614c.713-.374 1.798-.374 2.511 0l7.275 3.823c.429.226.665.562.707.909h.007v19.217c-.009.378-.248.754-.714 1l-7.275 3.823c-.713.374-1.798.374-2.511 0l-7.275-3.823c-.465-.245-.688-.623-.699-1a1.457 1.457 0 0 1 0-.094V281.47a.662.662 0 0 1 0-.063v-.061h.003c.033-.351.258-.678.696-.909l7.275-3.823Zm9.355 15.453-6.844 3.596c-.713.375-1.798.375-2.511 0l-6.829-3.588v8.449l6.829 3.57c.386.205.786.405 1.177.431l.078.002c.408.001.804-.205 1.206-.4l6.894-3.633v-8.427Zm-18.512 8.078c0 .736.086 1.22.257 1.561.141.282.353.498.741.761l.022.015c.085.057.179.117.293.187l.135.082.413.248-.593.975-.462-.278-.078-.047a13.066 13.066 0 0 1-.348-.222c-1.105-.742-1.517-1.55-1.525-3.231v-.051h1.145Zm9.84-13.229a.998.998 0 0 0-.148.063l-7.275 3.823-.022.012-.006.004.011.006.017.009 7.275 3.823a.998.998 0 0 0 .148.063v-7.803Zm1.145 0v7.803a.998.998 0 0 0 .148-.063l7.275-3.823.022-.012.006-.003-.012-.007-.016-.009-7.275-3.823a.998.998 0 0 0-.148-.063Zm7.527-4.207-6.526 3.43 6.526 3.429v-6.859Zm-16.184.008v6.843l6.511-3.421-6.511-3.422Zm8.805-5.095c-.378-.199-1.063-.199-1.441 0l-7.275 3.823-.022.012-.006.003.011.007.017.009 7.275 3.823c.378.198 1.063.198 1.441 0l7.275-3.823.022-.012.006-.004-.012-.006-.016-.009-7.275-3.823Zm8.454.419.462.278.078.047c.134.082.245.153.348.222 1.105.742 1.517 1.55 1.525 3.231l.001.051h-1.146c0-.736-.086-1.22-.256-1.561-.142-.282-.354-.498-.742-.761l-.022-.015a8.634 8.634 0 0 0-.293-.187l-.135-.082-.413-.248.593-.975Z"/><rect width="44" height="44" x="916" y="269" fill="#12140C" rx="22"/><path fill="#FCFC03" d="m946.068 290.834 4.42-2.202 1.523-4.676-3.047-2.217h-20.286l-4.691 3.484h23.846l-1.267 3.922h-9.562l-.92 2.866h9.562l-2.685 8.25 4.48-2.217 1.599-4.948-3.002-2.202.03-.06Z"/><path fill="#FCFC03" d="m930.729 296.716 2.76-8.597-3.062-2.292-4.6 14.434h17.134l1.146-3.545h-13.378Z"/><defs><linearGradient id="f" x1="662.5" x2="662.5" y1="197.5" y2="261.5" gradientUnits="userSpaceOnUse"><stop stop-color="#fff"/><stop offset="1" stop-color="#fff" stop-opacity=".8"/></linearGradient><linearGradient id="g" x1="570.5" x2="570.5" y1="187.5" y2="253.5" gradientUnits="userSpaceOnUse"><stop stop-color="#fff"/><stop offset="1" stop-color="#fff" stop-opacity=".8"/></linearGradient><linearGradient id="h" x1="478.5" x2="478.5" y1="197.5" y2="261.5" gradientUnits="userSpaceOnUse"><stop stop-color="#fff"/><stop offset="1" stop-color="#fff" stop-opacity=".8"/></linearGradient><linearGradient id="i" x1="754.5" x2="754.5" y1="222" y2="285" gradientUnits="userSpaceOnUse"><stop stop-color="#fff"/><stop offset="1" stop-color="#fff" stop-opacity=".7"/></linearGradient><linearGradient id="j" x1="386.5" x2="386.5" y1="222" y2="285" gradientUnits="userSpaceOnUse"><stop stop-color="#fff"/><stop offset="1" stop-color="#fff" stop-opacity=".7"/></linearGradient><linearGradient id="k" x1="846.5" x2="846.5" y1="252.5" y2="325.5" gradientUnits="userSpaceOnUse"><stop stop-color="#fff"/><stop offset="1" stop-color="#fff" stop-opacity=".4"/></linearGradient><linearGradient id="l" x1="294.5" x2="294.5" y1="252.5" y2="325.5" gradientUnits="userSpaceOnUse"><stop stop-color="#fff"/><stop offset="1" stop-color="#fff" stop-opacity=".4"/></linearGradient><linearGradient id="m" x1="202.5" x2="202.5" y1="275" y2="390" gradientUnits="userSpaceOnUse"><stop stop-color="#fff"/><stop offset="1" stop-color="#fff" stop-opacity=".1"/></linearGradient><linearGradient id="n" x1="938.5" x2="938.5" y1="275" y2="390" gradientUnits="userSpaceOnUse"><stop stop-color="#fff"/><stop offset="1" stop-color="#fff" stop-opacity=".1"/></linearGradient><linearGradient id="o" x1="191" x2="208.408" y1="299.862" y2="278.347" gradientUnits="userSpaceOnUse"><stop stop-color="#9945FF"/><stop offset=".138" stop-color="#7962E7"/><stop offset="1" stop-color="#00D18C"/></linearGradient><linearGradient id="q" x1="447.959" x2="493.382" y1="182.616" y2="210.413" gradientUnits="userSpaceOnUse"><stop stop-color="#A229C5"/><stop offset="1" stop-color="#7B3FE4"/></linearGradient><radialGradient id="a" cx="0" cy="0" r="1" gradientTransform="matrix(-.26 250.2959 -574.4657 -.5966 569.169 249.826)" gradientUnits="userSpaceOnUse"><stop stop-color="#fff"/><stop offset="1" stop-color="#fff" stop-opacity="0"/></radialGradient><radialGradient id="c" cx="0" cy="0" r="1" gradientTransform="matrix(-.26 250.2959 -574.4657 -.5966 569.168 259.827)" gradientUnits="userSpaceOnUse"><stop stop-color="#426EFF"/><stop offset="1" stop-color="#141416" stop-opacity="0"/></radialGradient><radialGradient id="d" cx="0" cy="0" r="1" gradientTransform="rotate(90 172.272 618.25) scale(487.874)" gradientUnits="userSpaceOnUse"><stop stop-color="#3E227B"/><stop offset="1" stop-color="#29227B" stop-opacity="0"/></radialGradient><radialGradient id="e" cx="0" cy="0" r="1" gradientTransform="rotate(90 -24.066 339.548) scale(420.889)" gradientUnits="userSpaceOnUse"><stop stop-color="#1A2D4B"/><stop offset="1" stop-color="#1A2D4B" stop-opacity="0"/></radialGradient><clipPath id="p"><path fill="#fff" d="M456 179h44v44h-44z"/></clipPath><clipPath id="r"><path fill="#fff" d="M548 164h44v44h-44z"/></clipPath><clipPath id="s"><path fill="#fff" d="M732 199h44v44h-44z"/></clipPath></defs></svg>
